<svg enable-background="new 0 0 500 500" viewBox="0 0 500 500" xmlns="http://www.w3.org/2000/svg"><g fill="#fff"><path d="m134.51 257.17c-5 2.84-3.15 15.55-1.36 18.7s7.29 3.4 12.29.56 7.61-7.69 5.82-10.84c-1.78-3.15-11.75-11.26-16.75-8.42z"/><path d="m470.71 91.65h-82.19c-4.86-6.32-9.87-12.38-15.1-17.89-9.19-8.5-20.34-6.52-27.34-.76-5.16 4.25-3.03 11.09-2.02 18.65h-37.28c-5.18-6.69-10.51-12.71-15.97-17.85-4.1-3.87-9.45-5.89-15.07-5.69-5.6.19-10.77 2.57-14.58 6.69-4.22 4.57-2.27 10.78-1.49 16.86h-34.47c-6.58-8.58-13.99-16.31-22.42-21.88-7.91-3.6-17.04-1.61-23.3 5.1-4.48 4.8-1.81 10.9-1.04 16.78h-32.33c-5.28-6.08-10.54-10.39-15.65-12.73-8.36-3.83-16.13-2.45-23.77 4.21-2.36 2.46-4.01 5.39-4.93 8.51h-72.47c-8.71 0-15.76 7.06-15.76 15.76s7.06 15.76 15.76 15.76h81.78c6.54 14.24 14.07 33.05 19.48 54.02 0 0 2.48 10.24 3.44 15.2l.4 2.05-2.03.5c-4.54 1.12-9.13 2.55-13.65 4.26l-2.61.99-.34-2.77c-.54-4.42.27-8.73 2.28-12.52-5.67 3.34-10.97 9.92-13.11 19.86l-.31 1.43-4.25.78-.79-1.27c-2.5-4.03-3.62-8.52-3.3-12.99-3.92 5.5-5.18 13.01-4.48 19.26l.15 1.33-1.11.74c-26.8 17.9-41.73 46.88-37.16 72.12 3.52 19.44 17.91 33.07 40.52 38.38l1.08.25.44 1.02c14.44 33.56 41.43 62.66 76 81.96 34.61 19.32 74.68 27.49 113.03 23.08v-.03l1.6-.17c34.43-3.74 67.08-16.99 94.44-38.32 27.76-21.65 48.02-50.11 58.59-82.32 11.37-35.09 10.21-79.32-3.28-124.55-6.46-21.66-15.62-42.86-26.64-62.26h61.25c8.71 0 15.76-7.06 15.76-15.76s-7.06-15.79-15.76-15.79zm-264.47 165.87-10.96 17.61c-17.37 27.9-48.93 43.69-81.67 40.86l-16.31-1.41c-2.92-.25-4.54-3.47-3.02-5.98 4.23-7 10.59-15.15 16.36-22.53 5.5-7.03 13.02-16.67 13.01-18.95-.08-1.6-.63-4.54-3.39-6.11-3.79-2.16-10.43-.97-18.68 3.37-6.97 3.66-13.9 11.73-20.06 23.35l-3.8 7.16-.33-8.1c-.84-20.51 10.83-41.31 29.75-52.99 2.65-1.64 6.44-.74 10.1.13 2.52.6 5.65 1.34 6.99.71 1.59-.75 2.57-3.16 3.51-5.5 1.24-3.07 2.65-6.54 6.06-7.63 15.72-4.96 33.2-4.06 47.95 2.47l11.52 5.1-12.57-.91c-12.26-.89-31.31 9.57-34.54 18.96-1.18 3.41-.01 6.26 3.57 8.7 2.11 1.02 14.04-1.2 22.77-2.83 11.22-2.09 23.94-4.46 32.65-4.27l1.6.04.46 1.53.01.04c.71 2.42.36 5.04-.98 7.18zm.22-40.12-4.25-4.22c-3.77-3.73-8.37-6.87-13.69-9.34l-1.28-.59-3.46-1.6s-.41-31.63-17.11-63.14c-2.05-3.86-3.66-8.17-5.9-12.71l-4.23-8.53h9.52 21.6 3.9l1.54 3.58c12.8 29.84 20.51 58.73 22.9 85.87l.53 5.97 1.42 16.09zm174.13 19.71c-1.74 44.82-21.28 48.42-43.91 52.6-11.42 2.11-24.36 4.49-39.17 12.32-2.34 1.24-4.95 1.89-7.55 1.89-3.24 0-6.34-.99-8.94-2.85-4.85-3.46-7.22-9.33-6.21-15.31 7.12-41.97-2.71-92.05-29.23-148.85-1.72-3.28-3.73-7.06-5.81-10.92l-4.71-8.72h9.91 24.67 3.84l1.56 3.51c16.85 37.87 27.53 77.5 31.74 117.78.84 8.06 1.27 14.66 1.27 19.63 0 2.28-.04 4.58-.13 6.89 11.53-4.74 22.71-6.92 31.18-8.57 2.04-.4 4.77-.93 7.1-1.46 2.18-8.2 4.3-20.55 3.93-36.84-.43-18.63-4.58-38.1-12.33-57.85-4.76-12.13-10.1-23.69-15.88-34.36l-4.73-8.73h9.92 24.99 3.88l1.54 3.57c6.76 15.65 11.82 29.78 15.44 43.19 6.8 25.08 9.29 48.99 7.63 73.08z"/></g></svg>